<svg width="90" height="86" viewBox="0 0 90 86" xmlns="http://www.w3.org/2000/svg" xmlns:xlink="http://www.w3.org/1999/xlink"><title>0119AA7A-E8CB-4342-B9CA-9615F82B8BB9</title><defs><rect id="a" x="32" width="26" height="26" rx="5"/><mask id="e" x="0" y="0" width="26" height="26" fill="#fff"><use xlink:href="#a"/></mask><rect id="b" x="32" y="32" width="26" height="26" rx="5"/><mask id="f" x="0" y="0" width="26" height="26" fill="#fff"><use xlink:href="#b"/></mask><rect id="c" y="32" width="26" height="26" rx="5"/><mask id="g" x="0" y="0" width="26" height="26" fill="#fff"><use xlink:href="#c"/></mask><rect id="d" x="64" y="32" width="26" height="26" rx="5"/><mask id="h" x="0" y="0" width="26" height="26" fill="#fff"><use xlink:href="#d"/></mask></defs><g fill="none" fill-rule="evenodd"><path d="M67.48 77.31h6v3.423h-6v-3.424zm-6 0H12.973v-3.136c0-1.105-.745-1.5-1.663-.882L4.7 77.733c-.916.616-.938 1.65-.044 2.305l6.698 4.911c.904.663 1.619.291 1.619-.814v-3.402h48.505v-3.424zm18 0h4.998c.553 0 1.001.447 1.001 1.008v1.406c0 .557-.445 1.009-1.001 1.009h-4.999v-3.424z" fill="#FFF" fill-rule="nonzero"/><g><use stroke="#FFF" mask="url(#e)" stroke-width="6" xlink:href="#a"/><use stroke="#FFF" mask="url(#f)" stroke-width="6" xlink:href="#b"/><use stroke="#FFF" mask="url(#g)" stroke-width="6" fill="#0187D0" xlink:href="#c"/><use stroke="#FFF" mask="url(#h)" stroke-width="6" fill="#0187D0" xlink:href="#d"/><path d="M75.5 41.5l4 3.5-4 3.5zM14.5 41.5l-4 3.5 4 3.5zM48.5 15L45 11l-3.5 4zM48.5 44L45 48l-3.5-4z" fill="#FFF"/></g></g></svg>